<?xml version="1.0" encoding="utf-8"?>
<!-- Generator: Adobe Illustrator 28.0.0, SVG Export Plug-In . SVG Version: 6.00 Build 0)  -->
<svg version="1.1" id="Capa_1" xmlns="http://www.w3.org/2000/svg" xmlns:xlink="http://www.w3.org/1999/xlink" x="0px" y="0px"
	 viewBox="0 0 216.9 150.6" style="enable-background:new 0 0 216.9 150.6;" xml:space="preserve">
<style type="text/css">
	.st0{fill:#585E65;}
	.st1{fill:#9E9FA3;}
	.st2{fill:#08161F;}
	.st3{enable-background:new    ;}
	.st4{fill:#ECECEC;}
	.st5{fill:#C70502;}
	.st6{fill:#323232;}
	.st7{fill:none;}
	.st8{fill:#E5E5E5;}
	.st9{fill:#FAFAFA;}
</style>
<g>
	<path class="st0" d="M204.2,131.5c-1.8,0-4.7-0.4-5.8-0.6l0.2-1.5c2.6,0.4,5.7,0.7,6.3,0.5c0.8-0.3,1.4-0.6,1.6-2.2
		c0.2-1.6,0.1-1.8-0.1-2.1c-0.4-0.3-2.5-0.9-5.4-1.1l0.1-1.5c1.5,0.1,5.7,0.6,6.4,1.7c0.5,0.7,0.6,1.2,0.4,3.1
		c-0.2,2.3-1.4,3-2.5,3.4C205.1,131.5,204.7,131.5,204.2,131.5z"/>
	<g>
		<path class="st1" d="M37.3,131.5c-1.7,0-3.6-0.3-5.1-1.9c-1.7-2-1.8-4.3-0.4-6.4c0.8-1.1,3.3-3.7,3.6-4l0,0L80.2,75l0,0
			c1.4-1.2,2-3.2,1.6-5.4c-0.4-2.6-2.1-4.9-4.4-5.8c-10.3-4.4-26.7-10.1-26.9-10.2c-4.6-1.6-5.3-5.1-5.9-8c-0.5-2.7-0.9-4.3-3.1-4.9
			l0,0l-21.7-7c-5.2-1.7-9.2-5.4-11.3-10.6c-1.1-2.6-1-5.1,0.2-7.2c0.9-1.7,2.6-3.2,4.8-4.2c5-2.3,8.4-2.9,11.2-1.9s4.8,3.3,7.6,6.5
			l0.2,0.2c2.7,3.1,21.9,22.9,22.1,23.1c0.9,0.9,2.2,1.6,4,2.1c0.1,0,0.4,0.1,0.6,0.1c2.4,0.3,5.4-1.2,8.1-2.5
			c2.5-1.3,4.7-2.4,6.5-2.1c1.1,0.1,1.9,0.4,2.5,0.7h0.1l23.9,8.7c0.3,0.1,0.6,0.2,1,0.4c2.5,0.9,6.2,2.2,7.3,7
			c0.5,2.2,0.2,4.1-0.7,5.9c-0.8,1.5-1.9,2.6-3,3.6c-0.4,0.4-0.7,0.7-1,1l0,0L77.3,91.1c-0.9,0.9-1.2,2.4-0.8,3.5
			c0.6,1.3,2.1,1.4,3.2,1.4c0.9-0.1,1.9-0.1,2.9-0.2c5.2-0.3,11-0.7,17.5-1.2c4.5-0.4,9.1-0.7,14-1c4.7-0.3,9.5-0.6,14.1-1
			c11.9-0.9,23.2-1.8,31.5-2.5c6.7-0.5,11.2-0.9,11.8-0.9c2.1-0.2,3.5,0.2,4.5,1.1c1.3,1.2,1.1,3.1,1.1,4.4c0,0.3,0,0.6,0,0.8v0.1
			c-0.1,1.2-0.2,2.2-0.3,3c-0.4,3.2-0.6,4.7,1.2,8.7c1.1,2.4,3.4,5.1,5.2,6.5c4.1,3.3,7.7,5.9,12.2,7.4c0.8,0.3,1.8,0.5,2.8,0.8
			c3.6,0.9,7.6,1.9,7.2,5.3c-0.1,0.8-0.4,3.4-3.4,3.7c-3.1,0.3-6.6,0.4-9,0.5l0,0c-1.5,0-153.8,0-155.5,0
			C37.5,131.5,37.4,131.5,37.3,131.5z M37,120.6c-0.9,0.9-2.8,2.9-3.3,3.7c-1,1.4-0.9,2.6,0.2,3.8c0.8,0.9,1.8,1.2,3.7,1.2
			c1.7,0,149,0,155.5,0c2.4-0.1,5.8-0.2,8.9-0.5c1.1-0.1,1.3-0.7,1.5-1.8c0.2-1.4-2.2-2.1-5.6-3c-1-0.3-2-0.5-2.9-0.8
			c-4.9-1.6-8.5-4.3-12.8-7.7c-2.3-1.8-4.7-4.8-5.8-7.3c-2.1-4.5-1.8-6.4-1.4-9.8c0.1-0.8,0.2-1.8,0.3-2.9c0-0.3,0-0.6,0-0.9
			c0.1-1,0.1-2.2-0.4-2.8c-0.5-0.4-1.4-0.6-2.8-0.5c-0.6,0.1-5.1,0.4-11.8,0.9c-8.3,0.6-19.6,1.5-31.5,2.5c-4.7,0.4-9.5,0.7-14.2,1
			c-4.9,0.3-9.5,0.6-14,1l-0.1-1l0.1,1C94.1,97.2,88,97.6,83,97.9c-1,0.1-2,0.1-2.9,0.2c-3.5,0.2-4.8-1.6-5.3-2.6
			c-0.8-1.9-0.3-4.4,1.2-5.9l26.6-26.5c0.3-0.4,0.7-0.7,1.1-1.1c1.8-1.8,3.9-3.8,3.1-7.6c-0.8-3.6-3.6-4.6-5.9-5.4
			c-0.4-0.1-0.7-0.3-1-0.4L76,39.9h-0.1c-0.6-0.2-1.1-0.5-2-0.6c-1.2-0.2-3.3,0.9-5.3,1.9c-2.9,1.5-6.3,3.1-9.3,2.7
			c-0.3,0-0.7-0.1-0.7-0.1h-0.1c-2.2-0.6-3.9-1.5-5-2.7C52.3,40.3,33.7,21,31,17.9l-0.2-0.2c-5.3-6.1-7.3-8.4-16.3-4.2
			c-1.5,0.7-6.1,3.3-3.9,8.7c1.9,4.5,5.4,7.9,10,9.4l21.7,7c3.5,1,4.1,3.9,4.6,6.5c0.5,2.7,1,5.2,4.5,6.4c0.2,0.1,16.6,5.8,27,10.2
			c2.9,1.2,5.1,4.1,5.6,7.4c0.5,2.9-0.4,5.5-2.3,7.3L37,120.6z"/>
	</g>
	<g>
		<g>
			<circle class="st2" cx="180.9" cy="87.2" r="3.6"/>
		</g>
		<g class="st3">
			<path class="st1" d="M179.9,88.4h0.8v-2.2l0,0l-0.7,0.2l-0.1-0.6l1-0.3h0.6v2.9h0.7V89H180v-0.6H179.9z"/>
		</g>
	</g>
	<g>
		<g>
			<circle class="st2" cx="185.4" cy="107.7" r="3.6"/>
		</g>
		<g class="st3">
			<path class="st1" d="M184.3,108.8c0-0.7,0.2-1,0.8-1.2l0.4-0.1c0.3-0.1,0.4-0.2,0.4-0.5l0,0c0-0.3-0.2-0.5-0.6-0.5
				c-0.4,0-0.7,0.1-0.9,0.2l-0.1-0.6c0.3-0.1,0.6-0.3,1.1-0.3c0.7,0,1.2,0.3,1.2,1v0.1c0,0.6-0.2,0.9-0.7,1l-0.4,0.1
				c-0.4,0.1-0.5,0.3-0.5,0.6v0.2h1.6v0.6h-2.3V108.8z"/>
		</g>
	</g>
	<g>
		<g>
			<circle class="st2" cx="212.3" cy="127.7" r="3.6"/>
		</g>
		<g class="st3">
			<path class="st1" d="M211.1,129.2l0.1-0.6c0.2,0.1,0.6,0.2,1,0.2s0.6-0.1,0.6-0.5l0,0c0-0.4-0.2-0.5-0.6-0.5h-0.4v-0.6h0.3
				c0.4,0,0.6-0.1,0.6-0.4l0,0c0-0.3-0.2-0.4-0.5-0.4c-0.4,0-0.6,0.1-0.9,0.2l-0.2-0.6c0.3-0.1,0.7-0.2,1.1-0.2
				c0.6,0,1.1,0.2,1.1,0.9v0.1c0,0.4-0.2,0.6-0.5,0.7l0,0c0.3,0.1,0.6,0.3,0.6,0.8v0.1c0,0.7-0.5,1-1.3,1
				C211.8,129.4,211.4,129.4,211.1,129.2z"/>
		</g>
	</g>
	<g>
		<g>
			<circle class="st2" cx="114.3" cy="52.6" r="3.6"/>
		</g>
		<g class="st3">
			<path class="st1" d="M111.9,53.7h0.8v-2.2l0,0l-0.7,0.2l-0.1-0.6l1-0.3h0.6v2.9h0.7v0.6H112v-0.6H111.9z"/>
			<path class="st1" d="M114.7,53.7c0-0.7,0.2-1,0.8-1.2l0.4-0.1c0.3-0.1,0.4-0.2,0.4-0.5l0,0c0-0.3-0.2-0.5-0.6-0.5
				s-0.7,0.1-0.9,0.2l-0.1-0.6c0.3-0.1,0.6-0.3,1.1-0.3c0.7,0,1.2,0.3,1.2,1v0.1c0,0.6-0.2,0.9-0.7,1l-0.4,0.1
				c-0.4,0.1-0.5,0.3-0.5,0.6v0.2h1.6v0.6h-2.3V53.7z"/>
		</g>
	</g>
	<g>
		<g>
			<circle class="st2" cx="25.8" cy="129.4" r="3.6"/>
		</g>
		<g class="st3">
			<path class="st1" d="M26.2,130.5h-1.7V130l1.2-2.3h0.8l-1.1,2.2h0.8v-1h0.7v1h0.4v0.6h-0.4v0.7h-0.7
				C26.2,131.2,26.2,130.5,26.2,130.5z"/>
		</g>
	</g>
	<g>
		<g>
			<circle class="st2" cx="76.2" cy="70.1" r="3.6"/>
		</g>
		<g class="st3">
			<path class="st1" d="M77.5,70.7L77.5,70.7c0,0.8-0.4,1.2-1.2,1.2c-0.6,0-1-0.1-1.2-0.3l0.2-0.6c0.3,0.2,0.6,0.3,0.9,0.3
				c0.4,0,0.6-0.1,0.6-0.5l0,0c0-0.4-0.2-0.5-0.7-0.5c-0.2,0-0.5,0-0.7,0l-0.2-0.2l0.1-1.7h1.9V69H76l-0.1,0.7c0.1,0,0.2,0,0.3,0
				C77,69.6,77.5,69.9,77.5,70.7z"/>
		</g>
	</g>
	<g>
		<g>
			<circle class="st2" cx="43.4" cy="55.3" r="3.6"/>
		</g>
		<g class="st3">
			<path class="st1" d="M44.7,55.9L44.7,55.9c0,0.8-0.4,1.2-1.2,1.2c-1,0-1.3-0.5-1.3-1.6v-0.1c0-1.4,0.6-1.8,1.4-1.8
				c0.3,0,0.7,0.1,0.9,0.2l-0.1,0.6c-0.2-0.1-0.4-0.1-0.7-0.1c-0.5,0-0.7,0.1-0.7,0.8c0.2,0,0.4,0,0.6,0
				C44.2,54.8,44.7,55.1,44.7,55.9z M43.9,55.9c0-0.4-0.1-0.5-0.5-0.5c-0.2,0-0.3,0-0.5,0c0,0.7,0.1,1,0.5,1
				C43.8,56.5,43.9,56.3,43.9,55.9L43.9,55.9z"/>
		</g>
	</g>
	<g>
		<g>
			<circle class="st2" cx="39" cy="45.8" r="3.6"/>
		</g>
		<g class="st3">
			<path class="st1" d="M39.5,44.6h-1.7V44h2.4v0.5l-1.4,3H38L39.5,44.6z"/>
		</g>
	</g>
	<g>
		<g>
			<circle class="st2" cx="3.8" cy="26.6" r="3.6"/>
		</g>
		<g class="st3">
			<path class="st1" d="M5.1,27.3L5.1,27.3c0,0.7-0.4,1-1.2,1c-0.9,0-1.3-0.3-1.3-1l0,0c0-0.4,0.2-0.7,0.5-0.8
				c-0.3-0.1-0.4-0.4-0.4-0.8l0,0c0-0.6,0.4-0.9,1.2-0.9c0.7,0,1.2,0.3,1.2,0.9l0,0c0,0.4-0.1,0.6-0.4,0.8C5,26.7,5.1,26.9,5.1,27.3
				z M4.4,27.3c0-0.4-0.1-0.5-0.5-0.5l0,0c-0.4,0-0.5,0.1-0.5,0.5l0,0c0,0.3,0.1,0.5,0.5,0.5C4.2,27.8,4.4,27.6,4.4,27.3L4.4,27.3z
				 M3.4,25.8c0,0.3,0.1,0.4,0.4,0.4l0,0c0.3,0,0.4-0.2,0.4-0.4l0,0c0-0.3-0.1-0.4-0.5-0.4C3.5,25.4,3.4,25.5,3.4,25.8L3.4,25.8z"/>
		</g>
	</g>
	<g>
		<g>
			<circle class="st2" cx="59.8" cy="36.1" r="3.6"/>
		</g>
		<g class="st3">
			<path class="st1" d="M57.4,37.2h0.8V35l0,0l-0.7,0.2l-0.1-0.6l1-0.3H59v2.9h0.7v0.6h-2.2L57.4,37.2L57.4,37.2z"/>
			<path class="st1" d="M60.4,37.5c-0.3-0.3-0.4-0.6-0.4-1.4V36c0-0.7,0.1-1.1,0.3-1.4c0.2-0.2,0.5-0.3,0.9-0.3c0.5,0,0.8,0.1,1,0.3
				c0.2,0.3,0.3,0.6,0.3,1.4v0.1c0,0.8-0.1,1.1-0.3,1.4c-0.2,0.2-0.5,0.3-1,0.3C60.9,37.8,60.6,37.7,60.4,37.5z M61.7,37.1
				c0.1-0.2,0.2-0.5,0.2-1V36c0-0.5,0-0.8-0.1-1c-0.1-0.1-0.2-0.1-0.4-0.1s-0.4,0-0.5,0.1c-0.1,0.2-0.1,0.5-0.1,1v0.1
				c0,0.5,0,0.8,0.1,1c0.1,0.1,0.2,0.2,0.4,0.2C61.5,37.2,61.7,37.2,61.7,37.1z"/>
		</g>
	</g>
	<g>
		<g>
			<circle class="st2" cx="73.6" cy="31.3" r="3.6"/>
		</g>
		<g class="st3">
			<path class="st1" d="M71.2,32.5H72v-2.2l0,0l-0.7,0.2l-0.1-0.6l1-0.3h0.6v2.9h0.7V33h-2.2v-0.5H71.2z"/>
			<path class="st1" d="M74.1,32.5h0.8v-2.2l0,0l-0.7,0.2L74,29.9l1-0.3h0.6v2.9h0.7V33h-2.2V32.5z"/>
		</g>
	</g>
	<g>
		<g>
			<circle class="st2" cx="70.1" cy="98.9" r="3.6"/>
		</g>
		<g class="st3">
			<path class="st1" d="M67.6,100.1h0.8v-2.2l0,0l-0.7,0.2l-0.1-0.6l1-0.3h0.6v2.9h0.7v0.6h-2.2v-0.6H67.6z"/>
			<path class="st1" d="M70.3,100.5l0.1-0.6c0.2,0.1,0.6,0.2,1,0.2S72,100,72,99.6l0,0c0-0.4-0.2-0.5-0.6-0.5H71v-0.6h0.3
				c0.4,0,0.6-0.1,0.6-0.4l0,0c0-0.3-0.2-0.4-0.5-0.4c-0.4,0-0.6,0.1-0.9,0.2l-0.2-0.6c0.3-0.1,0.7-0.2,1.1-0.2
				c0.6,0,1.1,0.2,1.1,0.9v0.1c0,0.4-0.2,0.6-0.5,0.7l0,0c0.3,0.1,0.6,0.3,0.6,0.8v0.1c0,0.7-0.5,1-1.3,1
				C71,100.7,70.6,100.6,70.3,100.5z"/>
		</g>
	</g>
	<g>
		<g>
			<circle class="st2" cx="24.7" cy="3.8" r="3.6"/>
		</g>
		<g class="st3">
			<path class="st1" d="M26,3.3V4c0,0.9-0.2,1.5-1.3,1.5c-0.4,0-0.8-0.1-1-0.1l0.1-0.6C24,4.9,24.3,5,24.6,5c0.4,0,0.6-0.2,0.6-0.7
				c-0.2,0-0.4,0-0.6,0c-0.8,0-1.2-0.3-1.2-1.1V3.1C23.5,2.4,24,2,24.7,2C25.6,2,26,2.4,26,3.3z M24.8,3.7c0.2,0,0.4,0,0.5,0V3.5
				c0-0.8-0.1-1-0.5-1S24.3,2.7,24.3,3l0,0C24.2,3.5,24.4,3.7,24.8,3.7z"/>
		</g>
	</g>
	<rect x="86.5" y="127.1" class="st4" width="0.7" height="12.6"/>
	<g>
		<path class="st5" d="M91.2,134.4h-8.8l0,0v8h8.8V134.4z"/>
		<g>
			<g class="st3">
				<path class="st4" d="M84.3,135.7h1.1v1h-1.1V135.7z M84.3,137.1h1v3.8h-1V137.1z"/>
				<path class="st4" d="M89.4,140l-0.2,0.9h-3V140h1.2v-3l-1.2,0.6v-0.9l1.5-0.7h0.8v4L89.4,140L89.4,140z"/>
			</g>
		</g>
	</g>
	
		<rect x="90.3" y="43.6" transform="matrix(0.2852 -0.9585 0.9585 0.2852 25.8234 122.5359)" class="st4" width="9.6" height="0.7"/>
	<g>
		<path class="st5" d="M100.6,32.8h-8.8l0,0v8h8.8V32.8z"/>
		<g class="st3">
			<path class="st4" d="M93.7,34.1h1.1v1h-1.1V34.1z M93.7,35.4h1v3.8h-1V35.4z"/>
			<path class="st4" d="M95.3,37.7h1.1c0,0.5,0.2,0.7,0.7,0.7c0.4,0,0.6-0.3,0.6-0.7s-0.3-0.6-0.7-0.6h-0.4v-0.8h0.3
				c0.5,0,0.7-0.2,0.7-0.6c0-0.4-0.2-0.6-0.5-0.6c-0.4,0-0.6,0.2-0.6,0.8l0,0h-1.1l0,0c0-1.1,0.6-1.7,1.7-1.7c1,0,1.6,0.5,1.6,1.3
				c0,0.5-0.2,0.8-0.6,1c0.5,0.2,0.8,0.5,0.8,1.1c0,0.9-0.7,1.5-1.8,1.5C95.9,39.3,95.3,38.8,95.3,37.7z"/>
		</g>
	</g>
	<rect x="13.9" y="34.5" transform="matrix(0.262 -0.9651 0.9651 0.262 -19.134 44.6562)" class="st4" width="11.4" height="0.7"/>
	<path class="st5" d="M23.3,36.8h-8.8l0,0v8h8.8V36.8z"/>
	<g class="st3">
		<path class="st4" d="M16.4,38h1.1v1h-1.1V38z M16.4,39.4h1v3.8h-1V39.4z"/>
		<path class="st4" d="M18.1,42.3c0-0.8,0.3-1.2,1-1.5l0.2-0.1c0.7-0.3,1-0.5,1-0.9s-0.2-0.6-0.5-0.6c-0.4,0-0.6,0.3-0.6,0.9v0.1
			h-1.1V40c0-1.1,0.6-1.7,1.7-1.7c1,0,1.6,0.6,1.6,1.5c0,0.7-0.4,1.2-1.2,1.6l-0.2,0c-0.6,0.3-0.8,0.5-0.8,0.9v0.1h2.2l-0.2,0.9H18
			v-1H18.1z"/>
	</g>
	<path class="st4" d="M89.9,143.2h-6.2l0,0v6.7h6.2V143.2z"/>
	<g class="st3">
		<path class="st6" d="M85.3,147.4v-0.2h0.9v0.1c0,0.4,0.2,0.5,0.5,0.5s0.5-0.2,0.5-0.4c0-0.3-0.1-0.3-0.5-0.5l-0.3-0.1
			c-0.5-0.2-1.1-0.4-1.1-1.2s0.6-1.2,1.3-1.2c0.9,0,1.4,0.5,1.4,1.3v0.1h-0.9v-0.1c0-0.3-0.2-0.5-0.4-0.5c-0.3,0-0.4,0.2-0.4,0.4
			c0,0.3,0.3,0.5,0.7,0.6h0.1c0.5,0.2,1,0.5,1,1.2c0,0.6-0.4,1.2-1.4,1.2C85.9,148.6,85.3,148.1,85.3,147.4z"/>
	</g>
	<g>
		<line class="st7" x1="100.2" y1="90.5" x2="101" y2="98.8"/>
		
			<rect x="100.2" y="90.5" transform="matrix(0.9954 -9.599464e-02 9.599464e-02 0.9954 -8.6266 10.0897)" class="st8" width="0.7" height="8.4"/>
	</g>
	<path class="st5" d="M104.9,83.8h-8.8l0,0v8h8.8V83.8z"/>
	<g class="st3">
		<path class="st4" d="M98.6,86.6v1h1.7v0.9h-1.7v1.8h-1v-3.9c0-0.6,0.3-1,1-1h1.9l-0.2,0.9h-1.4C98.7,86.3,98.6,86.4,98.6,86.6z"/>
		<path class="st4" d="M101,89.1v-3.7h1V89c0,0.3,0.1,0.4,0.4,0.4h1.4l-0.2,0.9h-1.5C101.4,90.3,101,89.9,101,89.1z"/>
	</g>
	<rect x="95.2" y="86.5" class="st9" width="0.9" height="5.4"/>
	<rect x="95.2" y="87.4" width="0.9" height="0.9"/>
	<rect x="95.2" y="89.2" width="0.9" height="0.9"/>
	<rect x="95.2" y="91" width="0.9" height="0.9"/>
	<rect x="94.3" y="86.5" class="st9" width="0.9" height="5.4"/>
	<rect x="94.3" y="86.5" width="0.9" height="0.9"/>
	<rect x="94.3" y="88.3" width="0.9" height="0.9"/>
	<rect x="94.3" y="90.1" width="0.9" height="0.9"/>
	<rect x="95.2" y="83.8" class="st9" width="0.9" height="2.7"/>
	<rect x="95.2" y="83.8" width="0.9" height="0.9"/>
	<rect x="95.2" y="85.6" width="0.9" height="0.9"/>
	<rect x="94.3" y="83.8" class="st9" width="0.9" height="2.7"/>
	<rect x="94.3" y="84.7" width="0.9" height="0.9"/>
</g>
</svg>
