<?xml version="1.0" encoding="utf-8"?>
<!-- Generator: Adobe Illustrator 28.0.0, SVG Export Plug-In . SVG Version: 6.00 Build 0)  -->
<svg version="1.1" id="Capa_1" xmlns="http://www.w3.org/2000/svg" xmlns:xlink="http://www.w3.org/1999/xlink" x="0px" y="0px"
	 viewBox="0 0 210 145" style="enable-background:new 0 0 210 145;" xml:space="preserve">
<style type="text/css">
	.st0{fill:#585E65;}
	.st1{fill:#9FA0A4;}
	.st2{fill:#08161F;}
	.st3{enable-background:new    ;}
	.st4{fill:none;}
	.st5{fill:#E6E6E6;}
	.st6{fill:#C80502;}
	.st7{fill:#EDEDED;}
	.st8{fill:#323232;}
	.st9{fill:#FAFAFA;}
</style>
<path class="st0" d="M163.2,64.3l-0.6-1.3c0.9-0.4,1.7-0.8,2.4-1.1c2.3-1,3.7-1.6,5.5-3.6c1.2-1.3,1.7-3.5,1.3-5.5
	c-0.6-2.9-2.5-4.8-5.6-5.1c-4.5-0.5-12,1.3-12,1.3l-0.4-1.4c0.3-0.1,7.8-1.9,12.6-1.3c3.6,0.4,6.1,2.7,6.8,6.3
	c0.5,2.5-0.2,5.1-1.7,6.8c-1.9,2.2-3.6,2.9-5.9,3.9C164.9,63.5,164.1,63.9,163.2,64.3L163.2,64.3z"/>
<path class="st1" d="M137.1,135.4c-2.3,0-4.8-0.3-7.3-1c-6.3-1.8-11.3-5.3-14.9-10.4c-3.4-4.9-4.8-10.2-5.3-13.8
	c-0.3-2.2-1.1-11.1-1.3-14.6c0-0.3,0-0.5-0.1-0.7c-0.2-2.9-0.3-4.7,0.9-7.6c1.5-3.6,5.4-5,5.6-5.1h0.1c2.5-0.9,7.1-2.4,10.2-3.1
	c4.1-0.8,7.1,0.1,10.9,3.3c3.3,2.8,5.2,6.2,6.8,9.1c0.2,0.3,0.4,0.7,0.5,1c1.8,3.1,2.2,6.1,1.6,10.3c-0.5,3.2-0.8,6.1-0.3,8.3
	c0.6,2.4,1.9,4.3,3.9,5.3c2.2,1.2,5.1,1.1,7.9,0c1.9-0.8,3.2-2.2,3.9-4.1c1-2.7,0.7-6.2-0.7-9.1c-1.7-3.4-3.6-4.7-5.7-6.1
	c-0.7-0.5-1.4-1-2.2-1.6c-3.9-3-5.6-7.4-5.2-13c1-12.9,10.9-17.7,14.1-19.3c0.3-0.1,0.5-0.2,0.7-0.3c1.9-1,3.6-1.9,4.6-5.2
	c0.9-3.2-1.8-6.5-3.5-7.4c-3.4-1.7-6-1.1-10.4-0.1c-4,0.9-26.4,7.1-36,9.9L52.1,78.7c-0.5,0.2-23.8,7.3-29.6,8.8
	c-1.7,0.4-3,0.9-4.1,1.2c-2.8,0.9-4.1,1.3-6.4,0.6c-3.1-1-4.3-2.4-5.9-4.7c-1.5-2.1-1.2-6.4-0.8-10.3c0-0.3,0.1-0.5,0.1-0.8
	c0.1-1,0.8-10.1,1.7-19.7C7.9,43,8.9,31.8,9,30.3v-0.4c0.3-3,0.7-8,2.3-11c2.2-4.3,6.6-7.6,11.7-8.9c5.3-1.3,11.3,0.1,13.3,0.9
	c3.7,1.5,9.2,4,15.5,6.9c9.4,4.3,21,9.6,32.5,14.4c17.5,7.2,34.2,13,34.3,13.1c3.5,1.2,4.9,1.4,7.4,1.5c2.1,0,4-0.5,7-1.3
	c0.5-0.2,1.1-0.3,1.6-0.5c3.7-1,23.8-5.9,26.9-6.5h0.2c2.9-0.5,4.8-0.9,7.9-0.5c2.8,0.4,4.9,2.2,6.4,3.5c0.3,0.3,0.6,0.5,0.8,0.7
	c1.7,1.4,12.6,10.8,14.6,12.6c2.1,1.9,2.6,4,3,5.2c0,0.1,0.1,0.2,0.1,0.3c0.1,0.2,0.3,1.2,0.7,2.5c1.6,5.8,5.5,19.3,6.2,22.5
	c0.8,3.5,0.7,6.9,0.6,9.6c0,0.5,0,1,0,1.5c0,2.6-0.6,4.8-1.3,7.2c-0.1,0.6-0.3,1.1-0.5,1.7c-0.9,3.7-3.2,5.1-4.2,5.7l0,0
	c-0.6,0.4-5.5,3.2-10.3,5.9c-2.5,1.4-4.9,2.8-6.3,3.6c-2.7,1.5-25.8,10.9-28.6,11.9h-0.1C148.3,133.6,143.1,135.4,137.1,135.4
	L137.1,135.4z M127.6,80.9c-0.7,0-1.4,0.1-2.2,0.2c-2.2,0.4-5.8,1.5-9.9,3h-0.1c0,0-3.2,1.2-4.4,3.9c-1.1,2.5-1,3.9-0.8,6.6
	c0,0.2,0,0.5,0.1,0.8c0.2,3.4,1,12.2,1.3,14.4c0.5,3.4,1.8,8.4,5,12.9c3.3,4.7,7.9,7.9,13.8,9.6c8.4,2.4,16.5-0.5,19.9-1.8h0.1
	c2.7-1,25.8-10.3,28.3-11.7c1.5-0.8,3.8-2.2,6.4-3.6c4.5-2.6,9.7-5.5,10.2-5.8l0,0c0.8-0.5,2.5-1.5,3.2-4.4c0.2-0.6,0.3-1.2,0.5-1.8
	c0.6-2.4,1.1-4.3,1.2-6.7c0-0.5,0-1,0-1.5c0.1-2.8,0.2-5.9-0.6-9.1c-0.7-3.2-4.6-16.7-6.2-22.4c-0.4-1.4-0.7-2.3-0.7-2.5
	c0-0.1-0.1-0.2-0.1-0.3c-0.3-1.1-0.7-2.7-2.3-4.2c-2.1-1.9-13.1-11.3-14.5-12.5c-0.3-0.2-0.6-0.5-0.9-0.8c-1.4-1.2-3.1-2.7-5.3-3
	c-2.8-0.4-4.5-0.1-7.3,0.5h-0.2c-2.9,0.5-22.6,5.3-26.7,6.4c-0.6,0.2-1.1,0.3-1.6,0.5c-3,0.8-5.2,1.5-7.6,1.4c-2.7,0-4.3-0.3-8-1.6
	c-0.2-0.1-16.9-5.9-34.4-13.1C72,29.5,60.3,24.1,51,19.8c-6.3-2.9-11.7-5.4-15.4-6.9c-1.8-0.8-7.3-2-12-0.8c-4.5,1.1-8.4,4-10.3,7.8
	c-1.4,2.6-1.8,7.6-2,10.2v0.4C11,32,10,43.2,9.1,54.1c-0.8,9.6-1.6,18.7-1.7,19.8c0,0.2-0.1,0.5-0.1,0.8c-0.2,2.2-0.7,7.2,0.4,8.9
	c1.5,2.2,2.4,3.1,4.8,3.9c1.7,0.5,2.6,0.2,5.2-0.6c1.1-0.3,2.4-0.8,4.1-1.2c5.9-1.6,29.3-8.8,29.5-8.8l0,0l63.6-18.6
	c9.8-2.9,32-9,36.2-9.9c4.5-1,7.8-1.7,11.8,0.3c2.2,1.1,5.9,5.2,4.6,9.8c-1.2,4.2-3.5,5.4-5.6,6.5c-0.2,0.1-0.4,0.2-0.7,0.4
	c-1.6,0.8-4.6,2.2-7.3,5c-3.3,3.4-5.2,7.6-5.6,12.6c-0.4,4.9,1.1,8.6,4.4,11.2c0.7,0.6,1.4,1,2.1,1.5c2.3,1.6,4.5,3,6.4,6.9
	c1.7,3.4,2,7.5,0.8,10.7c-0.9,2.5-2.7,4.3-5,5.3c-3.3,1.4-6.8,1.4-9.6-0.1c-2.5-1.3-4.3-3.7-5-6.7c-0.6-2.6-0.2-5.6,0.3-9.1
	c0.6-3.8,0.2-6.3-1.4-9c-0.2-0.3-0.4-0.6-0.6-1c-1.6-2.8-3.4-5.9-6.4-8.5C132,81.9,130,81,127.6,80.9L127.6,80.9z"/>
<circle class="st2" cx="160.1" cy="56.2" r="3.6"/>
<g class="st3">
	<path class="st1" d="M159.2,57.3h0.8v-2.2l0,0l-0.7,0.2l-0.1-0.6l1-0.3h0.6v2.9h0.7v0.6h-2.2v-0.6H159.2z"/>
</g>
<circle class="st2" cx="142.7" cy="73.3" r="3.6"/>
<g class="st3">
	<path class="st1" d="M141.6,74.4c0-0.7,0.2-1,0.8-1.2l0.4-0.1c0.3-0.1,0.4-0.2,0.4-0.5l0,0c0-0.3-0.2-0.5-0.5-0.5s-0.7,0.1-0.9,0.2
		l-0.1-0.6c0.3-0.1,0.6-0.2,1.1-0.2c0.7,0,1.2,0.3,1.2,1v0.1c0,0.6-0.2,0.8-0.7,1l-0.4,0.1c-0.4,0.1-0.5,0.3-0.5,0.6v0.2h1.6V75
		h-2.3v-0.6H141.6z"/>
</g>
<circle class="st2" cx="153.5" cy="111.3" r="3.6"/>
<g class="st3">
	<path class="st1" d="M152.3,112.8l0.1-0.6c0.2,0.1,0.6,0.2,0.9,0.2c0.4,0,0.6-0.1,0.6-0.5l0,0c0-0.4-0.2-0.5-0.6-0.5H153v-0.6h0.3
		c0.4,0,0.6-0.1,0.6-0.4l0,0c0-0.3-0.2-0.4-0.5-0.4s-0.6,0.1-0.8,0.2l-0.2-0.6c0.3-0.1,0.7-0.2,1.1-0.2c0.6,0,1.1,0.2,1.1,0.9v0.1
		c0,0.4-0.2,0.6-0.5,0.7l0,0c0.3,0.1,0.6,0.3,0.6,0.8v0.1c0,0.7-0.5,1-1.3,1C153,113,152.6,112.9,152.3,112.8z"/>
</g>
<circle class="st2" cx="136.9" cy="102.6" r="3.6"/>
<g class="st3">
	<path class="st1" d="M137.2,103.7h-1.7v-0.4l1.1-2.3h0.8l-1.1,2.2h0.8v-1h0.7v1h0.4v0.6h-0.4v0.7h-0.7L137.2,103.7L137.2,103.7z"/>
</g>
<circle class="st2" cx="126.2" cy="73.1" r="3.6"/>
<g class="st3">
	<path class="st1" d="M127.4,73.6L127.4,73.6c0,0.8-0.4,1.2-1.2,1.2c-0.6,0-0.9-0.1-1.2-0.3l0.2-0.6c0.3,0.2,0.6,0.3,0.9,0.3
		c0.4,0,0.6-0.1,0.6-0.5l0,0c0-0.4-0.2-0.5-0.6-0.5c-0.2,0-0.5,0-0.7,0l-0.2-0.2l0.1-1.7h1.9v0.6h-1.3l-0.1,0.7c0.1,0,0.2,0,0.3,0
		C127,72.6,127.4,72.9,127.4,73.6z"/>
</g>
<circle class="st2" cx="107.4" cy="80" r="3.6"/>
<g class="st3">
	<path class="st1" d="M108.7,80.5L108.7,80.5c0,0.8-0.4,1.2-1.2,1.2c-1,0-1.3-0.5-1.3-1.6V80c0-1.4,0.6-1.8,1.4-1.8
		c0.3,0,0.7,0.1,0.9,0.1l-0.1,0.6c-0.2-0.1-0.4-0.1-0.7-0.1c-0.5,0-0.7,0.1-0.7,0.8c0.2,0,0.4,0,0.6,0
		C108.3,79.5,108.7,79.7,108.7,80.5z M108,80.6c0-0.4-0.1-0.5-0.5-0.5c-0.2,0-0.3,0-0.5,0c0,0.7,0.1,1,0.5,1S108,81,108,80.6
		L108,80.6z"/>
</g>
<circle class="st2" cx="133.2" cy="141.1" r="3.6"/>
<g class="st3">
	<path class="st1" d="M133.6,139.9H132v-0.6h2.4v0.5l-1.3,2.9h-0.8L133.6,139.9z"/>
</g>
<circle class="st2" cx="197.9" cy="53.5" r="3.6"/>
<g class="st3">
	<path class="st1" d="M199.2,53v0.7c0,0.9-0.2,1.5-1.3,1.5c-0.4,0-0.8-0.1-1-0.1l0.1-0.6c0.2,0.1,0.6,0.1,0.9,0.1
		c0.4,0,0.6-0.2,0.6-0.7c-0.2,0-0.4,0-0.6,0c-0.8,0-1.2-0.3-1.2-1.1v-0.1c0-0.7,0.4-1.1,1.2-1.1C198.9,51.7,199.2,52.1,199.2,53z
		 M198,53.4c0.2,0,0.4,0,0.5,0v-0.1c0-0.8-0.1-1-0.5-1s-0.5,0.2-0.5,0.5l0,0C197.5,53.2,197.6,53.4,198,53.4z"/>
</g>
<circle class="st2" cx="171.5" cy="32.5" r="3.6"/>
<g class="st3">
	<path class="st1" d="M169.1,33.6h0.8v-2.2l0,0l-0.7,0.2l-0.1-0.6l1-0.3h0.6v2.9h0.7v0.6h-2.2v-0.6H169.1z"/>
	<path class="st1" d="M172.1,34c-0.3-0.2-0.4-0.6-0.4-1.4v-0.1c0-0.7,0.1-1.1,0.3-1.4c0.2-0.2,0.5-0.3,0.9-0.3c0.5,0,0.8,0.1,1,0.3
		c0.2,0.3,0.3,0.6,0.3,1.4v0.1c0,0.8-0.1,1.1-0.3,1.4c-0.2,0.2-0.5,0.3-1,0.3C172.6,34.2,172.3,34.2,172.1,34z M173.4,33.5
		c0.1-0.2,0.2-0.5,0.2-1v-0.1c0-0.5,0-0.8-0.1-1c-0.1-0.1-0.2-0.1-0.4-0.1s-0.4,0-0.4,0.1c-0.1,0.2-0.1,0.5-0.1,1v0.1
		c0,0.5,0,0.8,0.1,1c0.1,0.1,0.2,0.2,0.4,0.2C173.2,33.7,173.4,33.6,173.4,33.5z"/>
</g>
<circle class="st2" cx="127.4" cy="41" r="3.6"/>
<g class="st3">
	<path class="st1" d="M125,42.1h0.8v-2.2l0,0l-0.7,0.2l-0.1-0.6l1-0.3h0.6v2.9h0.7v0.6H125V42.1z"/>
	<path class="st1" d="M127.9,42.1h0.8v-2.2l0,0l-0.7,0.2l-0.1-0.6l1-0.3h0.6v2.9h0.7v0.6H128L127.9,42.1L127.9,42.1z"/>
</g>
<circle class="st2" cx="21" cy="4.6" r="3.6"/>
<g class="st3">
	<path class="st1" d="M18.5,5.7h0.8V3.6l0,0l-0.7,0.2l-0.1-0.6l1-0.3h0.6v2.9h0.7v0.6h-2.2L18.5,5.7L18.5,5.7z"/>
	<path class="st1" d="M21.3,5.7c0-0.7,0.2-1,0.8-1.2l0.4-0.1c0.3-0.1,0.4-0.2,0.4-0.5l0,0c0-0.3-0.2-0.5-0.5-0.5s-0.7,0.1-0.9,0.2
		L21.4,3c0.3-0.1,0.6-0.2,1.1-0.2c0.7,0,1.2,0.3,1.2,1v0.1c0,0.6-0.2,0.8-0.7,1L22.5,5C22.1,5.1,22,5.3,22,5.6v0.2h1.6v0.6h-2.3
		C21.3,6.4,21.3,5.7,21.3,5.7z"/>
</g>
<circle class="st2" cx="203.9" cy="112.1" r="3.6"/>
<g class="st3">
	<path class="st1" d="M205.2,112.8L205.2,112.8c0,0.7-0.4,1-1.2,1c-0.9,0-1.3-0.3-1.3-1l0,0c0-0.4,0.2-0.7,0.5-0.8
		c-0.3-0.1-0.4-0.4-0.4-0.8l0,0c0-0.6,0.4-0.9,1.2-0.9c0.7,0,1.2,0.3,1.2,0.9l0,0c0,0.3-0.1,0.6-0.4,0.8
		C205.1,112.2,205.2,112.4,205.2,112.8z M204.5,112.8c0-0.3-0.1-0.5-0.5-0.5l0,0c-0.3,0-0.5,0.1-0.5,0.5l0,0c0,0.3,0.1,0.5,0.5,0.5
		S204.5,113.2,204.5,112.8L204.5,112.8z M203.5,111.3c0,0.3,0.1,0.4,0.4,0.4l0,0c0.3,0,0.4-0.2,0.4-0.4l0,0c0-0.3-0.1-0.4-0.4-0.4
		C203.7,110.9,203.5,111,203.5,111.3L203.5,111.3z"/>
</g>
<circle class="st2" cx="6.1" cy="92.8" r="3.6"/>
<g class="st3">
	<path class="st1" d="M3.6,93.9h0.8v-2.2l0,0L3.7,92l-0.1-0.6l1-0.3h0.6V94h0.7v0.6H3.6V93.9z"/>
	<path class="st1" d="M6.3,94.3l0.1-0.6C6.7,93.9,7,94,7.4,94S8,93.9,8,93.5l0,0C8,93.1,7.8,93,7.4,93H7v-0.6h0.3
		c0.4,0,0.6-0.1,0.6-0.4l0,0c0-0.3-0.2-0.4-0.5-0.4s-0.6,0.1-0.9,0.2l-0.2-0.6C6.6,91.1,7,91,7.5,91c0.6,0,1.1,0.2,1.1,0.9V92
		c0,0.4-0.2,0.6-0.5,0.7l0,0c0.3,0.1,0.6,0.3,0.6,0.8v0.1c0,0.7-0.5,1-1.3,1C7,94.5,6.6,94.5,6.3,94.3z"/>
</g>
<line class="st4" x1="50.7" y1="73.5" x2="53.1" y2="82"/>
<rect x="51.5" y="73.3" transform="matrix(0.9626 -0.2708 0.2708 0.9626 -19.1183 16.9464)" class="st5" width="0.7" height="8.9"/>
<path class="st6" d="M57.4,81.2h-8.7l0,0v8h8.7V81.2z"/>
<g class="st3">
	<path class="st7" d="M50.3,83.7c0-0.6,0.3-0.9,0.9-0.9h2.1v0.8h-1.8c-0.1,0-0.2,0.1-0.2,0.2v0.9h1.9v0.8h-1.9v2h-1V83.7z"/>
	<path class="st7" d="M54.2,86.9v-4.1h1v3.9c0,0.1,0,0.1,0.1,0.1h1.5v0.8H55C54.4,87.6,54.2,87.4,54.2,86.9z"/>
</g>
<rect x="149.4" y="93.2" transform="matrix(0.5693 -0.8221 0.8221 0.5693 -10.1152 167.8906)" class="st7" width="11.6" height="0.7"/>
<path class="st6" d="M162.8,84h-8.7l0,0v8h8.7V84z"/>
<g class="st3">
	<path class="st7" d="M156.1,85.3h1v1h-1V85.3z M156.1,86.8h1v3.7h-1V86.8z"/>
	<path class="st7" d="M158.2,89.6h1.1v-3.1l0,0l-1,0.3l-0.2-0.8l1.4-0.4h0.9v4h1v0.8h-3.1L158.2,89.6L158.2,89.6z"/>
</g>
<rect x="107.1" y="38.8" transform="matrix(0.2947 -0.9556 0.9556 0.2947 42.6921 136.2255)" class="st7" width="13.1" height="0.7"/>
<path class="st6" d="M119.4,30.7h-8.7l0,0v8h8.7V30.7z"/>
<g class="st3">
	<path class="st7" d="M112.6,32h1v1h-1V32z M112.7,33.4h1v3.7h-1V33.4z"/>
	<path class="st7" d="M114.5,36.9l0.1-0.8c0.3,0.2,0.8,0.3,1.3,0.3c0.6,0,0.9-0.2,0.9-0.7v-0.1c0-0.5-0.3-0.7-0.8-0.7h-0.6v-0.8h0.4
		c0.6,0,0.8-0.1,0.8-0.6v-0.1c0-0.4-0.3-0.6-0.7-0.6c-0.5,0-0.9,0.1-1.2,0.3l-0.2-0.8c0.4-0.2,0.9-0.3,1.6-0.3
		c0.9,0,1.6,0.3,1.6,1.2v0.1c0,0.5-0.2,0.9-0.7,1l0,0c0.5,0.1,0.8,0.5,0.8,1.1v0.1c0,1-0.6,1.4-1.8,1.4
		C115.4,37.2,114.9,37.1,114.5,36.9z"/>
</g>
<rect x="153.2" y="127.1" transform="matrix(0.93 -0.3675 0.3675 0.93 -38.0186 65.7154)" class="st7" width="0.7" height="11.2"/>
<path class="st6" d="M159.1,134.8h-8.7l0,0v8h8.7V134.8z"/>
<g class="st3">
	<path class="st7" d="M152.4,136.1h1v1h-1V136.1z M152.4,137.5h1v3.7h-1V137.5z"/>
	<path class="st7" d="M154.4,140.3c0-1,0.3-1.5,1.1-1.7l0.6-0.2c0.4-0.1,0.6-0.2,0.6-0.7l0,0c0-0.4-0.3-0.6-0.8-0.6s-1,0.1-1.2,0.3
		l-0.2-0.8c0.4-0.2,0.9-0.4,1.6-0.4c0.9,0,1.6,0.4,1.6,1.4v0.1c0,0.8-0.3,1.2-1,1.4l-0.6,0.2c-0.5,0.1-0.7,0.4-0.7,0.8v0.3h2.2v0.8
		h-3.2L154.4,140.3L154.4,140.3z"/>
</g>
<rect x="110.9" y="55.8" transform="matrix(0.9626 -0.2708 0.2708 0.9626 -12.011 32.3564)" class="st7" width="0.7" height="7.8"/>
<path class="st7" d="M115.6,63.3h-6.1l0,0v6.6h6.1V63.3z"/>
<g class="st3">
	<path class="st8" d="M111.3,68.4l0.2-0.7c0.3,0.1,0.7,0.2,1,0.2c0.5,0,0.7-0.1,0.7-0.5l0,0c0-0.3-0.1-0.4-0.5-0.5l-0.4-0.1
		c-0.7-0.2-1-0.4-1-1.1v-0.1c0-0.9,0.5-1.1,1.4-1.1c0.5,0,0.9,0.1,1.2,0.2l-0.2,0.7c-0.3-0.1-0.7-0.2-1-0.2c-0.4,0-0.6,0-0.6,0.4
		l0,0c0,0.3,0.1,0.4,0.5,0.5l0.5,0.1c0.7,0.1,1,0.4,1,1.1v0.1c0,1-0.5,1.2-1.5,1.2C112.1,68.6,111.5,68.5,111.3,68.4z"/>
</g>
<rect x="47.8" y="83.9" class="st9" width="0.9" height="5.3"/>
<rect x="47.8" y="84.8" width="0.9" height="0.9"/>
<rect x="47.8" y="86.6" width="0.9" height="0.9"/>
<rect x="47.8" y="88.4" width="0.9" height="0.9"/>
<rect x="46.9" y="83.9" class="st9" width="0.9" height="5.3"/>
<rect x="46.9" y="83.9" width="0.9" height="0.9"/>
<rect x="46.9" y="85.7" width="0.9" height="0.9"/>
<rect x="46.9" y="87.5" width="0.9" height="0.9"/>
<rect x="47.8" y="81.2" class="st9" width="0.9" height="2.7"/>
<rect x="47.8" y="81.2" width="0.9" height="0.9"/>
<rect x="47.8" y="83" width="0.9" height="0.9"/>
<rect x="46.9" y="81.2" class="st9" width="0.9" height="2.7"/>
<rect x="46.9" y="82.1" width="0.9" height="0.9"/>
</svg>
