<?xml version="1.0" encoding="utf-8"?>
<!-- Generator: Adobe Illustrator 28.0.0, SVG Export Plug-In . SVG Version: 6.00 Build 0)  -->
<svg version="1.1" id="Capa_1" xmlns="http://www.w3.org/2000/svg" xmlns:xlink="http://www.w3.org/1999/xlink" x="0px" y="0px"
	 viewBox="0 0 210 112.5" style="enable-background:new 0 0 210 112.5;" xml:space="preserve">
<style type="text/css">
	.st0{fill:#585E65;}
	.st1{fill:#9E9FA3;}
	.st2{fill:#08161F;}
	.st3{enable-background:new    ;}
	.st4{fill:#9FA0A4;}
	.st5{fill:none;}
	.st6{fill:#E5E5E5;}
	.st7{fill:#C70502;}
	.st8{fill:#ECECEC;}
	.st9{fill:#323232;}
	.st10{fill:#FAFAFA;}
</style>
<path class="st0" d="M141.9,102.9c-4.6,0-10.3-2.1-13.1-4.8c-3.5-3.5-2.9-12.8-2.5-19c0.1-1.4,0.2-2.6,0.2-3.4h1.5
	c0,0.8-0.1,2.1-0.2,3.5c-0.4,5.6-1,14.9,2.1,17.9c2.6,2.6,8.1,4.5,12.4,4.4c2-0.1,3.6-0.6,4.4-1.5c1.6-1.8,1.6-7,1.6-10.5
	c0-1.1,0-2.1,0.1-2.8l1.5,0.1c0,0.7-0.1,1.6-0.1,2.7c0,3.9,0,9.3-2,11.5c-1.1,1.2-3,1.9-5.4,2C142.2,102.9,142,102.9,141.9,102.9
	L141.9,102.9z"/>
<path class="st1" d="M48.6,103.8c-1.4,0-2.7-0.4-3.8-1.3c-1.2-1-3-3.4-1.7-8.6c0.3-1.2,0.6-2.2,0.8-3c0.8-2.9,1.2-4.4,1.2-5.4
	c0-0.7-0.3-1.2-1.2-2.5c-0.2-0.3-0.4-0.6-0.7-1c-0.1-0.2-1-1.4-2.4-3.4l-5-7.2C17.7,45.8,6.7,30.1,4,26.2c-1.4-2-1.9-5.4-1.2-8.3
	c0.5-2,1.7-4.8,4.9-6.5c2.8-1.5,5.5-1.8,8.1-0.9C23.8,13.2,30,26,38,43.8c1,2.2,3,3.5,5.3,3.2c2.2-0.2,4.9-2,5.8-6.3
	c1.2-5.5,1.3-9.8,1.5-12.3c0-0.4,0-0.7,0-1c0.2-3.1,0.8-4.2,3.2-5.9C64.1,14.1,75.1,10.4,87.2,10c31.3-1,65-0.6,79.4-0.4
	c2.7,0,4.6,0.1,5.6,0.1c11.2,0,19.1,0,19.6,0c0.4,0,4.7-0.1,7.2,2.5c1.4,1.4,1.9,3.4,1.6,5.8c-0.6,5.5-8.9,6.6-15.6,7.4
	c-1.4,0.2-2.7,0.4-3.8,0.5c-4.3,0.7-10.9,2.5-18.6,9.5c-3.1,2.8-7.3,8.3-9,14.6c-1.8,6.6-2.3,12.7-2.8,18.6
	c-0.1,0.6-0.1,1.1-0.1,1.7c-0.4,4.3-0.4,8-0.5,11.3c-0.1,4.2-0.2,7.8-0.8,11.3c-0.2,1.3-1,2.4-2.1,3.1c-2,1.2-5.3,1.2-8.9-0.1
	c-5.6-2-12.3-6.6-12.3-17.3c0-18.9,0.4-28.7,0.4-28.8c0,0,0.1-2.1-1.4-3.5c-1.3-1.2-3.3-1.8-6.1-1.6c-7.6,0.5-9.8-0.7-17.1-5.1
	c-0.6-0.3-1.1-0.7-1.7-1.1c-3.9-2.5-8.3-5.4-15.8-4.5c-5.2,0.6-10.6,3.9-13.8,8.6c-2.9,4.3-3.5,9.8-4.3,17.3
	c-0.2,1.6-0.3,3.3-0.6,5.1c-0.2,1.6-0.3,3.3-0.4,5c-0.4,5.8-1,12.5-3.7,19.2c-2.2,5.4-6.1,11.9-10.5,14.1
	C50.4,103.6,49.5,103.8,48.6,103.8L48.6,103.8z M12.9,12.1c-1.3,0-2.7,0.4-4.1,1.1c-2.5,1.3-3.4,3.5-3.8,5.1c-0.7,2.8,0,5.4,0.8,6.6
	c2.7,3.9,13.7,19.6,31.8,45.3l5,7.2c1.4,2,2.3,3.3,2.4,3.4c0.2,0.3,0.5,0.7,0.7,0.9c2.2,3,2.1,3.4,0.4,9.6c-0.2,0.9-0.5,1.9-0.8,3
	c-0.8,3-0.5,5.2,1,6.4c1.2,1,3,1,4.2,0.4c3.8-1.9,7.5-8.2,9.5-13c2.7-6.4,3.1-12.9,3.6-18.6c0.1-1.8,0.3-3.5,0.5-5.1
	c0.2-1.8,0.4-3.5,0.6-5.1c0.8-7.9,1.4-13.6,4.7-18.3c3.5-5.1,9.5-8.8,15.2-9.5c8.2-0.9,13.2,2.3,17.1,4.8c0.6,0.4,1.1,0.7,1.7,1.1
	c7.1,4.4,8.8,5.3,15.8,4.8c3.4-0.2,6,0.5,7.8,2.2c2.2,2.2,2,5,2,5.1s-0.4,9.9-0.4,28.7c0,7.6,3.7,12.8,10.9,15.3
	c2.9,1,5.6,1.1,7.1,0.2c0.6-0.4,1-0.9,1.1-1.6c0.6-3.3,0.7-6.8,0.8-10.9c0.1-3.3,0.2-7.1,0.5-11.4c0.1-0.6,0.1-1.1,0.1-1.7
	c0.5-6,1-12.2,2.8-19c1.8-6.7,6.3-12.6,9.6-15.6c8.1-7.3,15.1-9.2,19.6-10c1.2-0.2,2.5-0.4,3.9-0.6c5.9-0.8,13.4-1.7,13.8-5.6
	c0.2-1.8-0.1-3.1-1.1-4.1c-1.9-2-5.6-1.9-5.6-1.9H192c-0.1,0-8.1,0-19.6,0c-1,0-2.9,0-5.6-0.1c-14.4-0.2-48.1-0.6-79.3,0.4
	c-11.7,0.4-22.3,4-32.4,11.1C53.2,24,53,24.5,52.8,27c0,0.3,0,0.6,0,1c-0.1,2.6-0.3,7-1.5,12.7c-1.1,5.4-4.7,7.7-7.6,8
	c-3.1,0.3-6-1.4-7.4-4.4c-7.5-16.8-13.8-29.8-20.9-32.2C14.4,12.3,13.7,12.1,12.9,12.1L12.9,12.1z"/>
<circle class="st2" cx="3.6" cy="7.3" r="3.6"/>
<g class="st3">
	<path class="st4" d="M2.6,8.4h0.8V6.2l0,0L2.6,6.4L2.5,5.8l1-0.3h0.6v2.9h0.7V9H2.6V8.4z"/>
</g>
<circle class="st2" cx="43" cy="40.8" r="3.6"/>
<g class="st3">
	<path class="st4" d="M41.9,41.9c0-0.7,0.2-1,0.8-1.2l0.4-0.1c0.3-0.1,0.4-0.2,0.4-0.5l0,0c0-0.3-0.2-0.5-0.6-0.5
		c-0.3,0-0.7,0.1-0.9,0.2l-0.1-0.6c0.3-0.1,0.6-0.2,1.1-0.2c0.7,0,1.2,0.3,1.2,1v0.1c0,0.6-0.2,0.8-0.7,1l-0.4,0.1
		c-0.4,0.1-0.5,0.3-0.5,0.6V42h1.6v0.6h-2.3V41.9z"/>
</g>
<circle class="st2" cx="46.2" cy="21.3" r="3.6"/>
<g class="st3">
	<path class="st4" d="M45.1,22.8l0.1-0.6c0.2,0.1,0.6,0.2,0.9,0.2c0.4,0,0.6-0.1,0.6-0.5l0,0c0-0.4-0.2-0.5-0.6-0.5h-0.4v-0.6H46
		c0.4,0,0.6-0.1,0.6-0.4l0,0c0-0.3-0.2-0.4-0.5-0.4s-0.6,0.1-0.9,0.2L45,19.6c0.3-0.1,0.7-0.2,1.1-0.2c0.6,0,1.1,0.2,1.1,0.9v0.1
		c0,0.4-0.2,0.6-0.5,0.7l0,0c0.3,0.1,0.6,0.3,0.6,0.8V22c0,0.7-0.5,1-1.3,1C45.7,23,45.3,22.9,45.1,22.8z"/>
</g>
<circle class="st2" cx="69.5" cy="7.2" r="3.6"/>
<g class="st3">
	<path class="st4" d="M69.8,8.2h-1.7V7.8l1.1-2.3H70l-1,2.1h0.8v-1h0.7v1h0.4v0.6h-0.4v0.7h-0.7V8.2z"/>
</g>
<circle class="st2" cx="206.4" cy="16.6" r="3.6"/>
<g class="st3">
	<path class="st4" d="M207.7,17.2L207.7,17.2c0,0.8-0.4,1.2-1.2,1.2c-0.6,0-0.9-0.1-1.2-0.3l0.2-0.6c0.3,0.2,0.6,0.3,0.9,0.3
		c0.4,0,0.6-0.1,0.6-0.5l0,0c0-0.4-0.2-0.5-0.6-0.5c-0.2,0-0.5,0-0.7,0l-0.2-0.2l0.1-1.7h1.9v0.6h-1.3l-0.1,0.7c0.1,0,0.2,0,0.3,0
		C207.2,16.1,207.7,16.4,207.7,17.2z"/>
</g>
<circle class="st2" cx="157.6" cy="29.4" r="3.6"/>
<g class="st3">
	<path class="st4" d="M158.9,29.9L158.9,29.9c0,0.8-0.4,1.2-1.2,1.2c-1,0-1.3-0.5-1.3-1.6v-0.1c0-1.4,0.6-1.8,1.4-1.8
		c0.3,0,0.7,0.1,0.9,0.1l-0.1,0.6c-0.2-0.1-0.4-0.1-0.7-0.1c-0.5,0-0.7,0.1-0.7,0.8c0.2,0,0.4,0,0.6,0
		C158.5,28.9,158.9,29.1,158.9,29.9z M158.2,30c0-0.4-0.1-0.5-0.5-0.5c-0.2,0-0.3,0-0.5,0c0,0.7,0.1,1,0.5,1
		C158.1,30.5,158.2,30.3,158.2,30L158.2,30z"/>
</g>
<circle class="st2" cx="142.6" cy="108.2" r="3.6"/>
<g class="st3">
	<path class="st4" d="M143.1,107h-1.7v-0.6h2.4v0.5l-1.4,2.9h-0.8L143.1,107z"/>
</g>
<circle class="st2" cx="120.8" cy="91.2" r="3.6"/>
<g class="st3">
	<path class="st4" d="M122.1,91.9L122.1,91.9c0,0.7-0.4,1-1.2,1c-0.9,0-1.3-0.3-1.3-1l0,0c0-0.4,0.2-0.7,0.5-0.8
		c-0.3-0.1-0.4-0.4-0.4-0.8l0,0c0-0.6,0.4-0.9,1.2-0.9c0.7,0,1.2,0.3,1.2,0.9l0,0c0,0.3-0.1,0.6-0.4,0.8
		C121.9,91.3,122.1,91.5,122.1,91.9z M121.3,91.9c0-0.3-0.1-0.5-0.5-0.5l0,0c-0.3,0-0.5,0.1-0.5,0.5l0,0c0,0.3,0.1,0.5,0.5,0.5
		C121.2,92.4,121.3,92.2,121.3,91.9L121.3,91.9z M120.4,90.4c0,0.3,0.1,0.4,0.4,0.4l0,0c0.3,0,0.4-0.2,0.4-0.4l0,0
		c0-0.3-0.1-0.4-0.5-0.4C120.5,89.9,120.4,90.1,120.4,90.4L120.4,90.4z"/>
</g>
<circle class="st2" cx="120.8" cy="50.3" r="3.6"/>
<g class="st3">
	<path class="st4" d="M122.1,49.9v0.7c0,0.9-0.2,1.5-1.3,1.5c-0.4,0-0.8-0.1-1-0.1l0.1-0.6c0.2,0.1,0.6,0.1,0.9,0.1
		c0.4,0,0.6-0.2,0.6-0.7c-0.2,0-0.4,0-0.6,0c-0.8,0-1.2-0.3-1.2-1.1v-0.1c0-0.7,0.4-1.1,1.2-1.1C121.7,48.6,122.1,49,122.1,49.9z
		 M120.9,50.3c0.2,0,0.4,0,0.5,0v-0.1c0-0.8-0.1-1-0.5-1s-0.5,0.2-0.5,0.5l0,0C120.3,50.1,120.5,50.3,120.9,50.3z"/>
</g>
<circle class="st2" cx="112.1" cy="34.8" r="3.6"/>
<g class="st3">
	<path class="st4" d="M109.6,35.9h0.8v-2.2l0,0l-0.7,0.2l-0.1-0.6l1-0.3h0.6v2.9h0.7v0.6h-2.2v-0.6H109.6z"/>
	<path class="st4" d="M112.6,36.2c-0.3-0.2-0.4-0.6-0.4-1.4v-0.1c0-0.7,0.1-1.1,0.3-1.4c0.2-0.2,0.5-0.3,0.9-0.3
		c0.5,0,0.8,0.1,1,0.3c0.2,0.3,0.3,0.6,0.3,1.4v0.1c0,0.8-0.1,1.1-0.3,1.4c-0.2,0.2-0.5,0.3-1,0.3C113.1,36.5,112.8,36.4,112.6,36.2
		z M114,35.8c0.1-0.2,0.2-0.5,0.2-1v-0.1c0-0.5,0-0.8-0.1-1c-0.1-0.1-0.2-0.1-0.4-0.1c-0.2,0-0.4,0-0.5,0.1c-0.1,0.2-0.1,0.5-0.1,1
		v0.1c0,0.5,0,0.8,0.1,1c0.1,0.1,0.2,0.2,0.4,0.2C113.8,35.9,113.9,35.9,114,35.8z"/>
</g>
<circle class="st2" cx="81.9" cy="40.5" r="3.6"/>
<g class="st3">
	<path class="st4" d="M79.5,41.6h0.8v-2.2l0,0l-0.7,0.2L79.5,39l1-0.3H81v2.9h0.7v0.6h-2.2V41.6z"/>
	<path class="st4" d="M82.4,41.6h0.8v-2.2l0,0l-0.7,0.2L82.4,39l1-0.3H84v2.9h0.7v0.6h-2.2v-0.6H82.4z"/>
</g>
<circle class="st2" cx="68.5" cy="87.3" r="3.6"/>
<g class="st3">
	<path class="st4" d="M66.1,88.4h0.8v-2.2l0,0l-0.7,0.2L66,85.8l1-0.3h0.6v2.9h0.7V89h-2.2V88.4z"/>
	<path class="st4" d="M68.8,88.3c0-0.7,0.2-1,0.8-1.2L70,87c0.3-0.1,0.4-0.2,0.4-0.5l0,0c0-0.3-0.2-0.5-0.6-0.5
		c-0.3,0-0.7,0.1-0.9,0.2l-0.1-0.6c0.3-0.1,0.6-0.2,1.1-0.2c0.7,0,1.2,0.3,1.2,1v0.1c0,0.6-0.2,0.8-0.7,1L70,87.7
		c-0.4,0.1-0.5,0.3-0.5,0.6v0.2h1.6V89h-2.3C68.8,89,68.8,88.3,68.8,88.3z"/>
</g>
<circle class="st2" cx="44.6" cy="108.9" r="3.6"/>
<g class="st3">
	<path class="st4" d="M42.2,110.1H43v-2.2l0,0l-0.7,0.2l-0.1-0.6l1-0.3h0.6v2.9h0.7v0.6h-2.2L42.2,110.1L42.2,110.1z"/>
	<path class="st4" d="M44.8,110.4l0.1-0.6c0.2,0.1,0.6,0.2,0.9,0.2c0.4,0,0.6-0.1,0.6-0.5l0,0c0-0.4-0.2-0.5-0.6-0.5h-0.4v-0.6h0.3
		c0.4,0,0.6-0.1,0.6-0.4l0,0c0-0.3-0.2-0.4-0.5-0.4s-0.6,0.1-0.9,0.2l-0.2-0.6c0.3-0.1,0.7-0.2,1.1-0.2c0.6,0,1.1,0.2,1.1,0.9v0.1
		c0,0.4-0.2,0.6-0.5,0.7l0,0c0.3,0.1,0.6,0.3,0.6,0.8v0.1c0,0.7-0.5,1-1.3,1C45.5,110.7,45.1,110.6,44.8,110.4z"/>
</g>
<circle class="st2" cx="39.3" cy="86.4" r="3.6"/>
<g class="st3">
	<path class="st4" d="M36.9,87.6h0.8v-2.2l0,0L37,85.6L36.8,85l1-0.3h0.6v2.9h0.7v0.6h-2.2C36.9,88.2,36.9,87.6,36.9,87.6z"/>
	<path class="st4" d="M41.1,87.5h-1.7V87l1.1-2.3h0.8l-1.1,2.2H41v-1h0.7v1h0.4v0.6h-0.4v0.7H41v-0.7H41.1z"/>
</g>
<line class="st5" x1="39.3" y1="68.9" x2="31.5" y2="74.5"/>
<rect x="30.6" y="71.4" transform="matrix(0.8138 -0.5811 0.5811 0.8138 -35.1084 33.934)" class="st6" width="9.6" height="0.7"/>
<path class="st7" d="M32.5,71.1h-8.7l0,0v8h8.8L32.5,71.1L32.5,71.1z"/>
<g class="st3">
	<path class="st8" d="M25.4,73.5c0-0.6,0.3-0.9,0.9-0.9h2.1v0.8h-1.8c-0.1,0-0.2,0.1-0.2,0.2v0.9h1.9v0.8h-1.9v2h-1V73.5z"/>
	<path class="st8" d="M29.2,76.7v-4.1h1v3.9c0,0.1,0,0.1,0.1,0.1h1.5v0.8H30C29.4,77.5,29.2,77.2,29.2,76.7z"/>
</g>
<rect x="55.7" y="14.8" transform="matrix(0.8535 -0.5212 0.5212 0.8535 -1.8919 32.0512)" class="st8" width="0.7" height="9.2"/>
<path class="st7" d="M58.7,9.3H50l0,0v8h8.8L58.7,9.3L58.7,9.3z"/>
<g class="st3">
	<path class="st8" d="M52,10.6h1v1h-1V10.6z M52,12h1v3.7h-1V12z"/>
	<path class="st8" d="M54,14.9h1.1v-3.1l0,0l-1,0.3l-0.2-0.8l1.4-0.4h0.9v4h1v0.8H54V14.9z"/>
</g>
<rect x="104.9" y="42.7" transform="matrix(0.366 -0.9306 0.9306 0.366 28.9898 128.6619)" class="st8" width="8.1" height="0.7"/>
<path class="st7" d="M111.7,46.4H103l0,0v8h8.8v-8H111.7z"/>
<g class="st3">
	<path class="st8" d="M105,47.7h1v1h-1V47.7z M105,49.1h1v3.7h-1V49.1z"/>
	<path class="st8" d="M106.7,52.5l0.1-0.8c0.3,0.2,0.8,0.3,1.3,0.3c0.6,0,0.9-0.2,0.9-0.7v-0.1c0-0.5-0.3-0.7-0.8-0.7h-0.6v-0.8h0.4
		c0.6,0,0.8-0.1,0.8-0.6V49c0-0.4-0.3-0.6-0.7-0.6c-0.5,0-0.9,0.1-1.2,0.3l-0.2-0.8c0.4-0.2,1-0.3,1.6-0.3c0.9,0,1.6,0.3,1.6,1.2
		v0.1c0,0.5-0.2,0.9-0.7,1l0,0c0.5,0.1,0.8,0.5,0.8,1.1v0.1c0,1-0.7,1.4-1.8,1.4C107.6,52.8,107.1,52.7,106.7,52.5z"/>
</g>
<rect x="167.5" y="27" transform="matrix(0.8431 -0.5377 0.5377 0.8431 9.3627 95.1928)" class="st8" width="0.7" height="9.1"/>
<path class="st7" d="M175.4,35.2h-8.7l0,0v8h8.8C175.4,43.2,175.4,35.2,175.4,35.2z"/>
<g class="st3">
	<path class="st8" d="M168.7,36.5h1v1h-1V36.5z M168.7,37.9h1v3.7h-1V37.9z"/>
	<path class="st8" d="M170.5,40.7c0-1,0.3-1.5,1.1-1.7l0.6-0.2c0.4-0.1,0.6-0.2,0.6-0.7l0,0c0-0.4-0.3-0.6-0.8-0.6s-1,0.1-1.2,0.3
		l-0.2-0.8c0.4-0.2,0.9-0.4,1.6-0.4c1,0,1.6,0.4,1.6,1.4v0.1c0,0.8-0.3,1.2-1,1.4l-0.6,0.2c-0.5,0.1-0.7,0.4-0.7,0.8v0.3h2.2v0.8
		h-3.2L170.5,40.7L170.5,40.7z"/>
</g>
<rect x="148.5" y="3.8" class="st8" width="0.7" height="9.9"/>
<path class="st8" d="M151.9,0.4h-6.1l0,0v6.7h6.1V0.4L151.9,0.4z"/>
<g class="st3">
	<path class="st9" d="M147.6,5.5l0.2-0.7c0.3,0.1,0.7,0.2,1,0.2c0.5,0,0.7-0.1,0.7-0.5l0,0c0-0.3-0.1-0.4-0.5-0.5h-0.4
		c-0.7-0.2-1-0.4-1-1.1V2.8c0-0.9,0.5-1.1,1.4-1.1c0.5,0,0.9,0.1,1.2,0.2L150,2.6c-0.3-0.1-0.7-0.2-1-0.2c-0.4,0-0.6,0-0.6,0.4l0,0
		c0,0.3,0.1,0.4,0.5,0.5l0.5,0.1c0.7,0.1,1,0.4,1,1.1v0.1c0,1-0.5,1.2-1.5,1.2C148.4,5.8,147.8,5.7,147.6,5.5z"/>
</g>
<rect x="22.9" y="73.8" class="st10" width="0.9" height="5.3"/>
<rect x="22.9" y="74.6" width="0.9" height="0.9"/>
<rect x="22.9" y="76.4" width="0.9" height="0.9"/>
<rect x="22.9" y="78.2" width="0.9" height="0.9"/>
<rect x="22" y="73.8" class="st10" width="0.9" height="5.3"/>
<rect x="22" y="73.8" width="0.9" height="0.9"/>
<rect x="22" y="75.5" width="0.9" height="0.9"/>
<rect x="22" y="77.3" width="0.9" height="0.9"/>
<rect x="22.9" y="71.1" class="st10" width="0.9" height="2.7"/>
<rect x="22.9" y="71.1" width="0.9" height="0.9"/>
<rect x="22.9" y="72.9" width="0.9" height="0.9"/>
<rect x="22" y="71.1" class="st10" width="0.9" height="2.7"/>
<rect x="22" y="72" width="0.9" height="0.9"/>
</svg>
